<?xml version="1.0" encoding="utf-8"?>
<!-- Generator: Adobe Illustrator 23.0.0, SVG Export Plug-In . SVG Version: 6.00 Build 0)  -->
<svg version="1.1" id="Capa_1" xmlns="http://www.w3.org/2000/svg" xmlns:xlink="http://www.w3.org/1999/xlink" x="0px" y="0px"
	 viewBox="0 0 24 21" style="enable-background:new 0 0 24 21;" xml:space="preserve">
<style type="text/css">
	.st0{fill:#F9B61B;}
</style>
<g>
	<g>
		<g id="g3074_9_">
			<path id="path3062_9_" class="st0" d="M22.5,0h-6.8c-0.6,0-1,0.3-1.5,0.7L2.8,10.4c-0.1,0.1-0.1,0.1-0.1,0.2c0,0.1,0,0.1,0.1,0.2
				l11.6,9.8c0.3,0.3,0.8,0.4,1.2,0.4h6.8c0.9,0,1.5-0.7,1.5-1.5V1.6C24,0.7,23.3,0,22.5,0L22.5,0z"/>
			<path id="path7_9_" class="st0" d="M2.4,11.3C2.2,11.1,2,10.8,2,10.6c0-0.2,0.1-0.4,0.2-0.6l6.6-9.2c0.1-0.1,0.1-0.2,0.1-0.3
				C8.8,0.2,8.6,0,8.3,0H1.5C0.7,0,0,0.7,0,1.6v17.9C0,20.3,0.7,21,1.5,21c0,0,6.7,0,6.8,0c0.3,0,0.5-0.2,0.5-0.5
				c0-0.1,0-0.2-0.1-0.3L2.4,11.3z"/>
		</g>
	</g>
</g>
</svg>
