<?xml version="1.0" encoding="utf-8"?>
<!-- Generator: Adobe Illustrator 23.0.0, SVG Export Plug-In . SVG Version: 6.00 Build 0)  -->
<svg version="1.1" id="Capa_1" xmlns="http://www.w3.org/2000/svg" xmlns:xlink="http://www.w3.org/1999/xlink" x="0px" y="0px"
	 viewBox="0 0 68 60" style="enable-background:new 0 0 68 60;" xml:space="preserve">
<style type="text/css">
	.st0{fill:#F9B61B;}
	.st1{fill:#E30613;}
	.st2{fill:#FAB617;}
</style>
<g>
	<g>
		<g id="g3074_9_">
			<path id="path3062_9_" class="st0" d="M108.5,19h-6.8c-0.6,0-1,0.3-1.5,0.7l-11.3,9.6c-0.1,0.1-0.1,0.1-0.1,0.2
				c0,0.1,0,0.1,0.1,0.2l11.6,9.8c0.3,0.3,0.8,0.4,1.2,0.4h6.8c0.9,0,1.5-0.7,1.5-1.5V20.6C110,19.7,109.3,19,108.5,19L108.5,19z"/>
			<path id="path7_9_" class="st0" d="M88.4,30.3c-0.1-0.2-0.3-0.5-0.3-0.8c0-0.2,0.1-0.4,0.2-0.6l6.6-9.2c0.1-0.1,0.1-0.2,0.1-0.3
				c0-0.3-0.2-0.5-0.5-0.5h-6.8c-0.8,0-1.5,0.7-1.5,1.6v17.9c0,0.9,0.7,1.5,1.5,1.5c0,0,6.7,0,6.8,0c0.3,0,0.5-0.2,0.5-0.5
				c0-0.1,0-0.2-0.1-0.3L88.4,30.3z"/>
		</g>
	</g>
</g>
<g>
	<g id="g3074_3_">
		<path id="path3062_3_" class="st1" d="M63.7,0.3H44.4c-1.7,0-2.9,0.8-4.3,2L8,29.7c-0.2,0.2-0.2,0.3-0.2,0.6
			c0,0.2,0.1,0.4,0.2,0.6L41,58.5c0.9,0.7,2.2,1.2,3.5,1.2h19.2c2.4,0,4.3-1.9,4.3-4.3V4.7C68,2.3,66.1,0.3,63.7,0.3L63.7,0.3z"/>
		<path id="path7_3_" class="st1" d="M6.7,32.4c-0.4-0.6-1-1.4-1-2.2c0-0.6,0.2-1.2,0.5-1.7L24.9,2.5C25,2.3,25,2,25,1.7
			c0-0.8-0.6-1.4-1.4-1.4H4.3C1.9,0.3,0,2.3,0,4.7v50.7c0,2.4,1.9,4.3,4.3,4.3c0,0,19,0,19.3,0c0.8,0,1.4-0.6,1.4-1.4
			c0-0.3-0.1-0.6-0.2-0.9L6.7,32.4z"/>
	</g>
	<g id="g3067_1_">
		<path id="path3058_1_" class="st2" d="M58.1,15.7c-2.7,0-4.1,1.3-4.1,3.7c0,2.4,1.5,3.8,4.1,3.8s4.1-1.4,4.1-3.8
			C62.2,17,60.8,15.7,58.1,15.7z M58.1,17.4c1.4,0,2.1,0.6,2.1,1.9c0,1.5-0.7,2.1-2.1,2.1s-2-0.7-2.1-2.1C56,18,56.7,17.4,58.1,17.4
			z"/>
		<path id="path3056_1_" class="st2" d="M54.4,26.3v7.3h4.1c2.3,0,3.6-1.2,3.6-3.7c0-2.4-1.1-3.6-3.6-3.6H54.4z M56.4,28.1h2
			c1.1,0,1.5,0.5,1.5,1.8s-0.5,2-1.5,2h-2V28.1z"/>
		<path id="path3060_1_" class="st2" d="M54.4,5.4h2v3l3-3h2.8L58.6,9l3.8,3.6h-2.9l-3-3v3h-2.1V5.4z"/>
		<path id="path3054_1_" class="st2" d="M59.4,54.6l-3-3v3h-2v-7.2h2v3l3-3h2.7L58.6,51l3.8,3.6L59.4,54.6L59.4,54.6z"/>
		<path id="path13-9_1_" class="st2" d="M56.9,36.8l-3.1,7.3H56l0.5-1.2h3.3l0.5,1.2h2.2l-3.1-7.3H56.9z M58.1,38.7l1.1,2.5h-2
			L58.1,38.7z"/>
	</g>
</g>
</svg>
