<?xml version="1.0" encoding="utf-8"?>
<!-- Generator: Adobe Illustrator 23.0.0, SVG Export Plug-In . SVG Version: 6.00 Build 0)  -->
<svg version="1.1" id="Capa_1" xmlns="http://www.w3.org/2000/svg" xmlns:xlink="http://www.w3.org/1999/xlink" x="0px" y="0px"
	 viewBox="0 0 99 86" style="enable-background:new 0 0 99 86;" xml:space="preserve">
<style type="text/css">
	.st0{fill:#E30613;}
	.st1{fill:#FAB617;}
</style>
<g>
	<g id="g3074_3_">
		<path id="path3062_3_" class="st0" d="M92.1,0H64.3c-2.5,0-4.2,1.2-6.3,3L11.6,42.5c-0.3,0.3-0.3,0.4-0.3,0.8
			c0,0.3,0.1,0.5,0.3,0.8l47.6,40c1.3,1.1,3.1,1.8,5,1.8h27.8c3.5,0,6.3-2.8,6.3-6.3V6.4C98.3,3,95.5,0,92.1,0L92.1,0z"/>
		<path id="path7_3_" class="st0" d="M9.7,46.4c-0.5-0.8-1.4-2-1.4-3.1c0-0.9,0.3-1.8,0.7-2.5l27-37.5c0.3-0.3,0.3-0.7,0.3-1.2
			c0-1.2-0.9-2.1-2.1-2.1h-28C2.8,0,0,3,0,6.4v73.2c0,3.5,2.8,6.3,6.2,6.3c0,0,27.5,0,28,0c1.2,0,2.1-0.9,2.1-2.1
			c0-0.4-0.2-0.9-0.4-1.3L9.7,46.4z"/>
	</g>
	<g id="g3067_1_">
		<path id="path3058_1_" class="st1" d="M84,22.3c-3.8,0-6,1.9-6,5.3c0,3.5,2.1,5.6,6,5.6s6-2,6-5.6C90,24.1,87.9,22.3,84,22.3z
			 M84,24.8c2.1,0,3,0.9,3,2.8c0,2.2-1,3.1-3,3.1s-3-1-3-3.1C81,25.6,82,24.8,84,24.8z"/>
		<path id="path3056_1_" class="st1" d="M78.6,37.6v10.6h5.9c3.4,0,5.2-1.8,5.2-5.4c0-3.5-1.6-5.2-5.2-5.2H78.6z M81.6,40.2h2.9
			c1.5,0,2.2,0.7,2.2,2.6s-0.7,2.9-2.2,2.9h-2.9V40.2z"/>
		<path id="path3060_1_" class="st1" d="M78.6,7.4h2.9v4.3l4.3-4.3H90l-5.3,5.2l5.5,5.2h-4.2l-4.4-4.3v4.3h-3V7.4z"/>
		<path id="path3054_1_" class="st1" d="M85.9,78.5l-4.4-4.3v4.3h-2.9V68.1h2.9v4.3l4.3-4.3h3.9l-5.1,5.2l5.5,5.2L85.9,78.5
			L85.9,78.5z"/>
		<path id="path13-9_1_" class="st1" d="M82.3,52.8l-4.5,10.6H81l0.7-1.8h4.7l0.7,1.8h3.2l-4.5-10.6H82.3z M84,55.6l1.5,3.7h-3
			L84,55.6z"/>
	</g>
</g>
</svg>
