<?xml version="1.0" encoding="UTF-8"?>
<!-- Generator: Adobe Illustrator 19.2.1, SVG Export Plug-In . SVG Version: 6.00 Build 0)  -->
<!DOCTYPE svg PUBLIC "-//W3C//DTD SVG 1.1//EN" "http://www.w3.org/Graphics/SVG/1.1/DTD/svg11.dtd">
<svg version="1.1" id="Layer_1" xmlns="http://www.w3.org/2000/svg" xmlns:xlink="http://www.w3.org/1999/xlink" x="0px" y="0px" viewBox="0 0 120 100" style="enable-background:new 0 0 120 100;" xml:space="preserve">
<style type="text/css">
	.st0{fill:#ED0000;}
</style>
<g>
	<path class="st0" d="M15.8,53.9c-0.6-0.9-1.6-2.2-1.6-3.5c0-1,0.3-2,0.8-2.8L45.2,5.8c0.3-0.3,0.3-0.8,0.3-1.3c0-1.3-1-2.3-2.3-2.3   H11.9C8.1,2.2,5,5.5,5,9.3v81.6c0,3.9,3.1,7,6.9,7c0,0,30.8,0,31.3,0c1.3,0,2.3-1,2.3-2.3c0-0.5-0.2-1-0.4-1.5L15.8,53.9z"/>
	<path class="st0" d="M99,36.3c2.3,0,3.4-1,3.4-3.4c0-2.1-1.1-3.1-3.4-3.1c-2.3,0-3.4,0.9-3.4,3.1C95.7,35.2,96.7,36.3,99,36.3z"/>
	<path class="st0" d="M99.6,47h-3.3v6.1h3.3c1.7,0,2.5-1.1,2.5-3.2C102.1,47.8,101.3,47,99.6,47z"/>
	<path class="st0" d="M108.1,2.2H76.9c-2.8,0-4.7,1.3-7,3.3L18,49.5c-0.3,0.3-0.3,0.5-0.3,0.9c0,0.3,0.1,0.6,0.3,0.9l53.3,44.6   c1.5,1.2,3.5,2,5.6,2H108c3.9,0,7-3.1,7-7V9.3C115,5.5,111.9,2.2,108.1,2.2z M93,10.4h3.3v4.8l4.8-4.8h4.6l-5.9,5.8l6.2,5.8h-4.7   l-4.9-4.8V22H93V10.4z M99,27c4.3,0,6.7,2.1,6.7,5.9c0,4-2.4,6.2-6.7,6.2c-4.3,0-6.7-2.3-6.7-6.2C92.3,29.1,94.7,27,99,27z    M105.4,49.9c0,4-2,6-5.8,6H93V44.1h6.6C103.6,44.1,105.4,46,105.4,49.9z M101.1,89.7l-4.9-4.8v4.8H93V78.1h3.3v4.8l4.8-4.8h4.4   l-5.7,5.8l6.2,5.8H101.1z M102.5,72.8l-0.8-2h-5.3l-0.8,2h-3.5l5-11.8h4l5,11.8H102.5z"/>
	<polygon class="st0" points="97.4,68.2 100.7,68.2 99,64.1  "/>
</g>
</svg>